<?xml version="1.0" encoding="UTF-8"?>
<svg width="190px" height="90px" viewBox="0 0 190 90" version="1.1" xmlns="http://www.w3.org/2000/svg" xmlns:xlink="http://www.w3.org/1999/xlink">
    <!-- Generator: Sketch 53.2 (72643) - https://sketchapp.com -->
    <title>文档 / 导出 3</title>
    <desc>Created with Sketch.</desc>
    <defs>
        <circle id="path-1" cx="20" cy="20" r="20"></circle>
        <circle id="path-3" cx="20" cy="20" r="20"></circle>
    </defs>
    <g id="文档-/-导出-3" stroke="none" stroke-width="1" fill="none" fill-rule="evenodd">
        <g id="按钮">
            <g id="符号-/-功能栏-/-导航-/-Inactive" stroke="#979797" stroke-width="5">
                <path d="M1,7.5 L39,7.5" id="路径-1"></path>
                <path d="M1,20.5 L39,20.5" id="路径-2"></path>
                <path d="M1,33.5 L39,33.5" id="路径-3"></path>
            </g>
            <g id="符号-/-功能栏-/-搜索-/-Inactive" transform="translate(50.000000, 0.000000)" stroke="#9B9B9B" stroke-width="3">
                <circle id="圆形" cx="15" cy="15" r="13.5"></circle>
                <path d="M38.7823298,38.7823298 L24,24" id="线段-1" stroke-linejoin="round"></path>
                <path d="M11.7708735,20.7708735 L2.29670477,11.2967048" id="线段-2" stroke-linejoin="round" transform="translate(7.000000, 16.000000) scale(-1, 1) translate(-7.000000, -16.000000) "></path>
                <path d="M17.7708735,26.7708735 L8.29670477,17.2967048" id="线段-3" stroke-linejoin="round" transform="translate(13.000000, 22.000000) scale(-1, 1) translate(-13.000000, -22.000000) "></path>
            </g>
            <g id="符号-/-功能栏-/-通知-/-静态-Inactive" transform="translate(100.000000, 0.000000)" fill="#9B9B9B">
                <path d="M38.8517322,32.9446922 C38.8038816,32.8884614 34.0737082,27.1718845 34.0737082,22.2307691 L34.0737082,13.076923 C34.0737082,5.85473786 27.7726944,2.9036602e-16 20,0 C12.2273056,-2.9036602e-16 5.92629176,5.85473786 5.92629176,13.076923 L5.92629176,22.2307691 C5.92629176,27.1718845 1.19611842,32.8884614 1.14826782,32.9446922 C0.983188435,33.1418739 0.953456922,33.4092236 1.07165513,33.6336038 C1.18985334,33.8579839 1.43532053,34.0001733 1.70417929,33.9999998 L38.2958207,33.9999998 C38.5646795,34.0001733 38.8101467,33.8579839 38.9283449,33.6336038 C39.0465431,33.4092236 39.0168116,33.1418739 38.8517322,32.9446922 Z" id="路径"></path>
                <path d="M16,36 C16.3214346,38.2956042 18.2388799,40 20.5,40 C22.7611201,40 24.6785654,38.2956042 25,36 L16,36 Z" id="路径"></path>
            </g>
            <g id="符号-/-功能栏-/-个人信息-/-Inactive" transform="translate(150.000000, 0.000000)">
                <mask id="mask-2" fill="white">
                    <use xlink:href="#path-1"></use>
                </mask>
                <circle stroke="#9B9B9B" stroke-width="2" cx="20" cy="20" r="19"></circle>
                <path d="M32.041,25.8691364 C29.698,24.5609091 25.7935,23 20.5,23 C15.2065,23 11.302,24.5609091 8.959,25.8691364 C7.189,26.8582273 6,29.4855 6,32.4071818 L6,39.2272727 C6,39.6538182 6.224,40 6.5,40 L34.5,40 C34.776,40 35,39.6538182 35,39.2272727 L35,32.4071818 C35,29.4855 33.811,26.8582273 32.041,25.8691364 Z" id="路径" fill="#9B9B9B" fill-rule="evenodd" mask="url(#mask-2)"></path>
                <path d="M20.5,19 C24.0841,19 27,16.4271471 27,13.2647059 L27,11.7352941 C27,8.57285294 24.0841,6 20.5,6 C16.9159,6 14,8.57285294 14,11.7352941 L14,13.2647059 C14,16.4271471 16.9159,19 20.5,19 Z" id="路径" fill="#9B9B9B" fill-rule="evenodd" mask="url(#mask-2)"></path>
            </g>
        </g>
        <g id="按钮-copy" transform="translate(0.000000, 50.000000)">
            <g id="符号-/-功能栏-/-导航-/-Hover" stroke="#F25B68" stroke-width="5">
                <path d="M1,7.5 L39,7.5" id="路径-1"></path>
                <path d="M1,20.5 L39,20.5" id="路径-2"></path>
                <path d="M1,33.5 L39,33.5" id="路径-3"></path>
            </g>
            <g id="符号-/-功能栏-/-搜索-/-Hover" transform="translate(50.000000, 0.000000)" stroke="#F25B68" stroke-width="3">
                <circle id="圆形" cx="15" cy="15" r="13.5"></circle>
                <path d="M38.7823298,38.7823298 L24,24" id="线段-1" stroke-linejoin="round"></path>
                <path d="M11.7708735,20.7708735 L2.29670477,11.2967048" id="线段-2" stroke-linejoin="round" transform="translate(7.000000, 16.000000) scale(-1, 1) translate(-7.000000, -16.000000) "></path>
                <path d="M17.7708735,26.7708735 L8.29670477,17.2967048" id="线段-3" stroke-linejoin="round" transform="translate(13.000000, 22.000000) scale(-1, 1) translate(-13.000000, -22.000000) "></path>
            </g>
            <g id="符号-/-功能栏-/-通知-/-静态-Hover" transform="translate(100.000000, 0.000000)" fill="#F25B68">
                <path d="M38.8517322,32.9446922 C38.8038816,32.8884614 34.0737082,27.1718845 34.0737082,22.2307691 L34.0737082,13.076923 C34.0737082,5.85473786 27.7726944,2.9036602e-16 20,0 C12.2273056,-2.9036602e-16 5.92629176,5.85473786 5.92629176,13.076923 L5.92629176,22.2307691 C5.92629176,27.1718845 1.19611842,32.8884614 1.14826782,32.9446922 C0.983188435,33.1418739 0.953456922,33.4092236 1.07165513,33.6336038 C1.18985334,33.8579839 1.43532053,34.0001733 1.70417929,33.9999998 L38.2958207,33.9999998 C38.5646795,34.0001733 38.8101467,33.8579839 38.9283449,33.6336038 C39.0465431,33.4092236 39.0168116,33.1418739 38.8517322,32.9446922 Z" id="路径"></path>
                <path d="M16,36 C16.3214346,38.2956042 18.2388799,40 20.5,40 C22.7611201,40 24.6785654,38.2956042 25,36 L16,36 Z" id="路径"></path>
            </g>
            <g id="符号-/-功能栏-/-个人信息-/-Hover" transform="translate(150.000000, 0.000000)">
                <mask id="mask-4" fill="white">
                    <use xlink:href="#path-3"></use>
                </mask>
                <circle stroke="#F25B68" stroke-width="2" cx="20" cy="20" r="19"></circle>
                <path d="M32.041,25.8691364 C29.698,24.5609091 25.7935,23 20.5,23 C15.2065,23 11.302,24.5609091 8.959,25.8691364 C7.189,26.8582273 6,29.4855 6,32.4071818 L6,39.2272727 C6,39.6538182 6.224,40 6.5,40 L34.5,40 C34.776,40 35,39.6538182 35,39.2272727 L35,32.4071818 C35,29.4855 33.811,26.8582273 32.041,25.8691364 Z" id="路径" fill="#F25B68" fill-rule="evenodd" mask="url(#mask-4)"></path>
                <path d="M20.5,19 C24.0841,19 27,16.4271471 27,13.2647059 L27,11.7352941 C27,8.57285294 24.0841,6 20.5,6 C16.9159,6 14,8.57285294 14,11.7352941 L14,13.2647059 C14,16.4271471 16.9159,19 20.5,19 Z" id="路径" fill="#F25B68" fill-rule="evenodd" mask="url(#mask-4)"></path>
            </g>
        </g>
    </g>
</svg>