<?xml version="1.0" encoding="UTF-8"?>
<svg width="40px" height="40px" viewBox="0 0 40 40" version="1.1" xmlns="http://www.w3.org/2000/svg" xmlns:xlink="http://www.w3.org/1999/xlink">
    <!-- Generator: Sketch 53 (72520) - https://sketchapp.com -->
    <title>符号 / 功能栏 / 个人信息 / Hover</title>
    <desc>Created with Sketch.</desc>
    <defs>
        <circle id="path-1" cx="20" cy="20" r="20"></circle>
    </defs>
    <g id="符号-/-功能栏-/-个人信息-/-Hover" stroke="none" stroke-width="1" fill="none" fill-rule="evenodd">
        <mask id="mask-2" fill="white">
            <use xlink:href="#path-1"></use>
        </mask>
        <circle stroke="#F25B68" stroke-width="2" cx="20" cy="20" r="19"></circle>
        <path d="M32.041,25.8691364 C29.698,24.5609091 25.7935,23 20.5,23 C15.2065,23 11.302,24.5609091 8.959,25.8691364 C7.189,26.8582273 6,29.4855 6,32.4071818 L6,39.2272727 C6,39.6538182 6.224,40 6.5,40 L34.5,40 C34.776,40 35,39.6538182 35,39.2272727 L35,32.4071818 C35,29.4855 33.811,26.8582273 32.041,25.8691364 Z" id="路径" fill="#F25B68" mask="url(#mask-2)"></path>
        <path d="M20.5,19 C24.0841,19 27,16.4271471 27,13.2647059 L27,11.7352941 C27,8.57285294 24.0841,6 20.5,6 C16.9159,6 14,8.57285294 14,11.7352941 L14,13.2647059 C14,16.4271471 16.9159,19 20.5,19 Z" id="路径" fill="#F25B68" mask="url(#mask-2)"></path>
    </g>
</svg>