<?xml version="1.0" encoding="UTF-8"?>
<svg width="40px" height="40px" viewBox="0 0 40 40" version="1.1" xmlns="http://www.w3.org/2000/svg" xmlns:xlink="http://www.w3.org/1999/xlink">
    <!-- Generator: Sketch 53 (72520) - https://sketchapp.com -->
    <title>符号 / 功能栏 / 通知 / 静态 Inactive</title>
    <desc>Created with Sketch.</desc>
    <g id="符号-/-功能栏-/-通知-/-静态-Inactive" stroke="none" stroke-width="1" fill="none" fill-rule="evenodd">
        <path d="M38.8517322,32.9446922 C38.8038816,32.8884614 34.0737082,27.1718845 34.0737082,22.2307691 L34.0737082,13.076923 C34.0737082,5.85473786 27.7726944,2.9036602e-16 20,0 C12.2273056,-2.9036602e-16 5.92629176,5.85473786 5.92629176,13.076923 L5.92629176,22.2307691 C5.92629176,27.1718845 1.19611842,32.8884614 1.14826782,32.9446922 C0.983188435,33.1418739 0.953456922,33.4092236 1.07165513,33.6336038 C1.18985334,33.8579839 1.43532053,34.0001733 1.70417929,33.9999998 L38.2958207,33.9999998 C38.5646795,34.0001733 38.8101467,33.8579839 38.9283449,33.6336038 C39.0465431,33.4092236 39.0168116,33.1418739 38.8517322,32.9446922 Z" id="路径" fill="#9B9B9B"></path>
        <path d="M16,36 C16.3214346,38.2956042 18.2388799,40 20.5,40 C22.7611201,40 24.6785654,38.2956042 25,36 L16,36 Z" id="路径" fill="#9B9B9B"></path>
    </g>
</svg>