<?xml version="1.0" encoding="UTF-8"?>
<svg width="22px" height="22px" viewBox="0 0 22 22" version="1.1" xmlns="http://www.w3.org/2000/svg" xmlns:xlink="http://www.w3.org/1999/xlink">
    <!-- Generator: Sketch 52.4 (67378) - http://www.bohemiancoding.com/sketch -->
    <title>符号</title>
    <desc>Created with Sketch.</desc>
    <g id="组件" stroke="none" stroke-width="1" fill="none" fill-rule="evenodd">
        <g id="详细-/-收藏-/-1" transform="translate(-20.000000, -9.000000)" fill="#FFFFFF">
            <g id="符号" transform="translate(20.000000, 3.000000)">
                <g transform="translate(0.000000, 6.000000)" id="路径">
                    <path d="M9.425,4.58157302 L9.425,16.1702577 L12.175,16.1702577 L12.175,4.58157302 L17.675,9.97165893 L19.6,8.08512886 L11.7625,0.404256443 C11.2125,-0.134752148 10.3875,-0.134752148 9.8375,0.404256443 L2,8.08512886 L3.925,9.97165893 L9.425,4.58157302 Z"></path>
                    <path d="M19.25,19.2 L2.75,19.2 L2.75,15 L0,15 L0,20.6 C0,21.44 0.55,22 1.375,22 L20.625,22 C21.45,22 22,21.44 22,20.6 L22,15 L19.25,15 L19.25,19.2 Z"></path>
                </g>
            </g>
        </g>
    </g>
</svg>